<?xml version="1.0" encoding="utf-8"?>
<!-- Generator: Adobe Illustrator 17.0.0, SVG Export Plug-In . SVG Version: 6.00 Build 0)  -->
<!DOCTYPE svg PUBLIC "-//W3C//DTD SVG 1.1//EN" "http://www.w3.org/Graphics/SVG/1.1/DTD/svg11.dtd">
<svg version="1.1" id="Layer_1" xmlns="http://www.w3.org/2000/svg" xmlns:xlink="http://www.w3.org/1999/xlink" x="0px" y="0px"
	 width="107px" height="30.25px" viewBox="0 -6.25 107 30.25" enable-background="new 0 -6.25 107 30.25" xml:space="preserve">
<path fill="#3DBEB3" d="M20.713,19.452c-1.454,0.02-2.661,0.062-3.871,0.028c-2.204-0.062-4.408-0.116-6.613-0.17
	c-0.304-0.007-0.608-0.005-0.911,0.011c-0.258,0.014-0.359,0.253-0.216,0.496c0.463,0.786,1.127,1.322,2,1.597
	c1.082,0.341,2.182,0.276,3.275,0.102c1.2-0.191,2.391-0.436,3.586-0.66c1.098-0.206,2.197-0.091,3.297-0.017
	c0.372,0.025,0.537,0.233,0.627,0.55c0.031,0.11,0.067,0.219,0.083,0.331c0.191,1.335,0.313,1.278-1.024,1.276
	c-2.395-0.004-4.79,0.014-7.185-0.007c-5.494-0.048-10.403-3.264-12.643-8.259c-0.743-1.656-1.068-3.398-1.113-5.202
	C-0.15,3.364,3.939-2.279,9.854-4.05c1.206-0.361,2.441-0.573,3.705-0.575c2.585-0.004,5.17-0.004,7.756-0.004
	c0.189,0,0.385-0.004,0.565,0.041c0.081,0.021,0.191,0.161,0.188,0.244c-0.013,0.34-0.043,0.682-0.107,1.016
	c-0.111,0.577-0.246,0.715-0.826,0.717c-1.215,0.005-2.424,0.229-3.643,0.087c-1.027-0.12-2.004-0.342-2.907-0.907
	c-0.991-0.621-2.084-0.656-3.183-0.266c-0.513,0.182-0.951,0.475-1.249,0.945C9.836-2.254,9.831-1.754,10.145-1.25
	c0.273,0.439,0.671,0.727,1.138,0.91c1.083,0.424,2.19,0.448,3.188-0.163c1.399-0.857,2.904-1.055,4.488-0.976
	c0.342,0.017,0.687,0.006,1.025,0.05c0.276,0.036,0.678-0.143,0.792,0.216c0.083,0.261-0.246,0.441-0.433,0.618
	c-0.978,0.928-2.14,1.429-3.494,1.449c-0.988,0.015-1.977-0.005-2.965,0.012c-3.546,0.062-6.658,2.34-7.721,5.717
	c-1.33,4.228,0.576,8.214,4.132,10.067c1.064,0.554,2.205,0.822,3.399,0.846c1.026,0.02,2.053,0,3.079,0.013
	c1.35,0.017,2.521,0.498,3.516,1.406C20.398,19.013,20.474,19.145,20.713,19.452z"/>
<path fill="#3DBEB3" d="M46.511,10.976c0.064-3.456,2.879-5.98,6.553-5.873c3.55,0.103,6.133,2.719,6.059,6.137
	c-0.076,3.488-2.873,6.002-6.547,5.886C49.045,17.013,46.448,14.38,46.511,10.976z M52.896,15.218
	c2.284-0.071,4.034-1.863,4.037-4.132c0.003-2.356-1.894-4.14-4.303-4.047c-2.295,0.089-3.944,1.875-3.884,4.208
	C48.805,13.535,50.636,15.288,52.896,15.218z"/>
<path fill="#3DBEB3" d="M73.171,13.299c0.515,1.324,1.639,2.142,2.07,3.466c-1.249,0.478-2.132,0.235-2.788-0.856
	c-0.354-0.588-0.777-1.135-1.174-1.696c-0.274-0.386-0.6-0.674-1.121-0.674c-2.174,0-2.503-0.262-2.405,2.102
	c0.003,0.076,0.001,0.153-0.004,0.229c-0.06,0.975-0.777,1.407-1.735,1.011c-0.18-0.074-0.344-0.295-0.419-0.485
	c-0.08-0.203-0.059-0.451-0.059-0.68c-0.003-3.058-0.002-6.115,0.002-9.173c0-0.228,0.021-0.459,0.063-0.683
	c0.062-0.327,0.272-0.579,0.603-0.576c2.055,0.021,4.125-0.293,6.158,0.247c2.993,0.794,3.762,4.144,2.277,6.223
	C74.247,12.303,73.705,12.745,73.171,13.299z M67.742,9.413c0,0.532-0.01,1.065,0.004,1.597c0.009,0.341,0.202,0.591,0.536,0.632
	c1.061,0.13,2.132,0.172,3.177-0.067c0.975-0.222,1.577-0.979,1.665-1.937c0.096-1.06-0.431-1.938-1.483-2.297
	c-0.493-0.168-1.04-0.24-1.563-0.244C67.611,7.079,67.693,6.867,67.742,9.413z"/>
<path fill="#3DBEB3" d="M101.289,5.251c0.711-0.063,1.142,0.207,1.439,0.878c1.457,3.29,2.966,6.557,4.439,9.839
	c0.324,0.722,0.12,0.985-0.619,1.02c-0.763,0.037-1.438-0.127-1.618-0.939c-0.369-1.665-1.503-1.92-2.939-1.765
	c-0.454,0.049-0.919,0.001-1.378,0.009c-1.875,0.034-2.413-0.342-3.105,1.853c-0.25,0.793-1.293,1.085-2.097,0.735
	c-0.108-0.047-0.199-0.233-0.216-0.366c-0.019-0.139,0.038-0.301,0.099-0.436c1.476-3.282,2.974-6.553,4.424-9.846
	C100.047,5.488,100.511,5.146,101.289,5.251z M103.077,12.372c-0.201-1.562-0.903-2.882-1.641-4.181
	c-0.095-0.167-0.428-0.105-0.539,0.143c-0.465,1.034-0.937,2.066-1.366,3.115c-0.333,0.815-0.143,1.087,0.771,1.088
	C101.196,12.539,102.103,12.665,103.077,12.372z"/>
<path fill="#3DBEB3" d="M85.436,17.13c-1.321-0.016-2.576-0.307-3.748-0.92c-0.659-0.344-0.726-0.768-0.297-1.511
	c0.174-0.301,0.41-0.468,0.735-0.356c0.576,0.198,1.127,0.468,1.705,0.661c0.961,0.322,1.945,0.411,2.933,0.117
	c0.611-0.181,1.137-0.473,1.233-1.193c0.076-0.568-0.263-1.078-0.993-1.36c-0.567-0.219-1.173-0.337-1.753-0.524
	c-0.798-0.257-1.625-0.46-2.376-0.819c-2.371-1.134-2.035-4.145-0.277-5.266c0.256-0.163,0.525-0.323,0.81-0.421
	c1.966-0.679,3.908-0.593,5.795,0.283c0.376,0.175,0.535,0.534,0.337,0.96c-0.188,0.404-0.323,0.961-0.931,0.749
	c-1.021-0.356-2.04-0.639-3.133-0.552c-0.539,0.043-1.055,0.13-1.505,0.474c-0.672,0.515-0.679,1.439-0.003,1.945
	c0.633,0.474,1.406,0.575,2.129,0.807c0.798,0.256,1.626,0.44,2.393,0.766c1.059,0.451,1.705,1.265,1.755,2.469
	c0.052,1.256-0.449,2.228-1.513,2.893C87.725,16.96,86.606,17.155,85.436,17.13z"/>
<path fill="#3DBEB3" d="M36.356,5.096c1.921,0.029,3.231,0.376,4.342,1.303c0.303,0.253,0.56,0.547,0.292,0.975
	c-0.363,0.58-0.91,0.889-1.306,0.697c-0.48-0.233-0.91-0.579-1.404-0.769c-1.623-0.625-3.561-0.164-4.609,1.127
	c-1.117,1.376-1.279,2.917-0.534,4.524c0.754,1.628,2.541,2.481,4.417,2.139c0.607-0.111,1.157-0.352,1.694-0.673
	c0.806-0.482,0.965-0.429,1.549,0.183c0.414,0.434,0.407,0.794-0.018,1.151c-3.078,2.585-8.984,1.554-10.155-3.229
	C29.857,9.388,31.835,5.045,36.356,5.096z"/>
</svg>
